<svg xmlns="http://www.w3.org/2000/svg" width="1234.667" height="1345.333"><path style="opacity:.98999999;fill:#2ca05a;fill-opacity:1;stroke-width:.61596173" d="M611.8 1107.038c-4.67-1.942-8.93-3.986-11.298-6.685-1.104-1.257-6.728-9.853-12.499-18.536-16.446-24.752-27.26-39.376-34.692-45.09-14.89-11.447-34.744-22.268-65.935-35.528-8.639-3.673-28.827-13.926-31.876-15.445-18.573-9.254-33.153-17.913-52.049-35.198-10.024-9.17-11.68-12.115-13.1-11.57-.537.206-6.902 6.797-15.274 15.59-14.886 15.631-15.71 17.808-16.905 16.736-2.798-2.513-51.064-59.184-97.184-116.283-20.597-25.5-20.497-25.002-19.429-26.633 1.738-2.652 18.144-16.576 50.08-44.483 12.12-10.59 24.267-22.748 27.746-26.265 14.532-14.685 24.675-27.714 37.316-54.423l6.719-14.196 81.388.77 81.39-.154-.59 6.93c-1.255 15.536-7.229 40.529-13.642 55.316-1.329 3.063-1.8 5.521-1.8 5.84 0 1.389 16.286 26.297 23.14 35.44 4.503 6.01 2.7 6.508 4.864 6.121 1.198-.214 9.17-2.646 16.962-4.464 27.488-6.412 37.904-9.607 53.354-8.275l10.197-1.149-.18 6.86c-.083 3.185.255 73.377.08 154.853-.298 138.173-.501 161.577-1.477 161.51 1.486 1.064-3.442-.814-5.306-1.589z"/><path style="opacity:.98999999;fill:#fd5;fill-opacity:1;stroke-width:.61596173" d="M621.477 1108.784c-.268-.424-1.792-65.532-2.057-141.757-.264-76.225-1.346-147.813-.936-159.073l.199-22.55 7.132 2.178c15.925.001 26.653-.79 63.752 10.045l12.583 3.675 2.178-2.086c3.203-3.068 11.358-13.318 15.508-19.492 5.076-7.552 10.389-19.09 10.389-20.405 0-.607-1.824-3.97-2.99-5.743-2.319-3.531-4.56-12.232-8.297-25.406-3.61-12.733-7.435-23.262-6.295-30.908l.543-6.684 80.26.299 80.138-.3 4.275 5.802c1.49 2.967 10.454 17.097 19.526 32.529l18.777 27.57 37.074 32.932c16.408 14.575 8.87 7.141 25.17 21.775 7.75 6.957 14.015 13.094 15.387 14.304 1.51 1.33 1.925 4.397 1.718 4.93-.934 2.404-24.117 30.474-62.394 77.205-6.798 8.3-16.165 20.981-21.215 27.248-14.245 17.68-30.328 36.124-31.451 36.124-1.704 0-8.877-7.844-17.223-16.632-8.346-8.79-14.745-15.72-15.417-15.932-1.584-.503-1.308.433-13.933 12.383-10.994 10.406-17.888 15.527-24.75 19.795-5.466 3.4-18.002 9.961-48.88 24.637-51.787 24.612-69.578 34.474-82.949 48.46-7.416 7.757-12.996 16.535-26.727 37.321-7.016 10.621-12.19 18.831-13.975 20.477-1.596 1.471-4.609 4.267-7.095 5.416-5.159 2.384-7.378 2.887-8.025 1.863z"/><path style="opacity:.98999999;fill:#5f8dd3;fill-opacity:1;stroke-width:.5" d="M712.831 683.192c.152-1.169.093-5.098.517-8.948 1.403-12.766 3.55-27.413 5.792-36.78 3.725-15.574 9.917-37.36 9.917-38.207 0-.805-16.14-18.289-22.34-24.862-5.094-5.4-2.981-4.829-13.756-.91-17.5 6.363-33.564 10.412-54.639 14.365-6.034 1.132-18.683 2.104-19.025 1.757-.092-.094.694-3.214.925-6.514.23-3.3-.12-54.56.38-75.788l1.427-69.96 10.853-14.54 11.542-14.654 21.578-.152 20.674.152 6.506-4.774c30.972-22.726 65.143-45.28 81.625-53.895 17.047-8.91 51.985-23.163 73.268-22.543l5.706-.816 19.45 22.045c57.637 65.326 76.528 84.32 76.117 86.377-.348 1.801-9.999 4.699-13.828 6.105-24.129 12.845-45.185 20.576-60.624 38.984-16.638 19.837-27.308 40.608-29.996 71.647-2.141 24.721 4.28 67.713 15.638 102.735 2.78 8.573 8.652 14.693 10.208 28.72l.797 3.083-158.682-.002z"/><path style="opacity:.98999999;fill:#e95420;fill-opacity:1;stroke-width:1.41421354" d="M366.543 685.82c0-.2 2.2-7.212 4.957-14.207 6.504-16.498 14.332-41.72 18.227-61.016 2.322-11.503 3.385-22.241 3.874-42.919.782-33.044-.766-40.083-11.274-61.671-6.186-12.71-8.814-16.306-20.818-28.487-7.557-7.667-17.918-16.114-23.483-19.688-11.426-7.336-33.083-18.452-41.158-20.87-3.565-1.069-7.869-2.347-7.38-3.624.407-1.057 23.085-27.462 48.974-55.457l46.142-50.998 6.484.617c12.357 1.176 33.84 7.053 47.38 11.716 24.338 8.382 49.45 22.681 92.772 54.278l20.096 14.656 20.334.01 22.094-.01 12.165 15.92 10.731 14.721 2.018 63.707c.013 34.613.072 67.323.58 73.85l-.27 13.281-6.721.296c-48.507-9.874-53.62-12.48-76.413-18.94 0 0-15.188 17.895-27.391 28.546l6.816 18.504c4.7 12.76 10.64 45.329 10.256 60.202l-.361 7.595-158.631-.012z"/><g aria-label="DISCERE" style="font-style:normal;font-variant:normal;font-weight:400;font-stretch:normal;font-size:66.37227631px;line-height:1.25;font-family:'Bitstream Charter';-inkscape-font-specification:'Bitstream Charter';letter-spacing:0;word-spacing:0;fill:#000;fill-opacity:1;stroke:none;stroke-width:3.31861401"><path style="opacity:.98999999;fill:#f4eed7;fill-opacity:1;stroke-width:2.04413939" d="M350.737 1119.592c0-5.923-9.046-13.833-48.3-42.236-78.515-56.813-117.59-88.595-151.58-123.292-28.055-28.639-45.188-53.405-56.342-81.445-8.58-21.569-12.334-39.063-15.416-71.83-.996-10.586-4.427-40.461-6.509-56.669l-.356-2.772 1.95 3.04c6.907 10.762 14.785 25.528 18.754 35.15 3.928 9.523 16.792 32.208 18.593 32.788.903.291 10.343-10.385 14.558-16.465 1.761-2.54 6.954-11.965 11.54-20.943 4.586-8.977 8.607-16.278 8.935-16.223.329.055.779 1.164 1 2.464.654 3.834 2.284 23.188 3.62 42.97 2.105 31.16 4.163 41.4 11.14 55.418 5.524 11.096 18.05 25.127 35.038 39.245 41.543 34.524 115.043 90.817 157.379 120.536 17.458 12.256 24.814 18.024 33.15 25.998 11.173 10.687 14.609 16.619 15.883 27.427.853 7.229.455 10.043-2.185 15.452-4.503 9.227-13.741 17.315-26.107 22.856-1.922.862-8.276 3.58-14.12 6.043l-10.625 4.476z"/><path style="stroke-width:3.31861401" d="m607.027 118.603 16.393-.225-.037-2.655-3.788-.346-1.141-.914-.503-36.567 1.116-.945 3.778-.384-.037-2.72-16.393.225c-6.636.09-11.67.89-16.137 4.337-5.385 4.19-8.154 10.4-8.045 18.298.191 13.937 9.066 22.112 24.794 21.896zm5.467-3.128-5.243.072c-12.145.167-18.137-5.99-18.315-18.932-.177-12.875 5.642-19.327 17.787-19.494l5.243-.072zM576.664 74.696l-16.777.708.115 2.718 4.258.153 1.166.88 1.542 36.54-1.089.975-4.227.577.112 2.653 16.777-.708-.112-2.652-4.26-.22-1.167-.88-1.541-36.539 1.088-.976 4.23-.51zM553.6 76.988c-3.141-1.106-7.302-1.607-12.07-1.266-10.592.758-16.752 6.722-16.193 14.534.208 2.913 1.377 5.291 3.434 7.074 3.258 2.761 6.91 3.564 10.385 4.713 6.275 2.146 9.572 3.574 9.89 8.01.345 4.832-2.804 8.252-8.431 8.654-2.317.166-4.337-.155-6.058-.964l-1.074-1.054-1.443-6.218-3.442.246.734 10.262c3.996.978 7.746 1.308 11.387 1.048 9.401-.673 14.919-6.325 14.383-13.806-.46-6.421-4.474-8.596-12.05-11.248-7.439-2.595-11.364-3.512-11.757-9.007-.332-4.634 3.006-8.2 9.428-8.66 2.979-.213 5.533.137 7.524.993l.94 1.063 1.34 7.557 3.906-.28zM482.02 83.943l1.203 10.418 3.693-.427.604-7.486.933-1.177a19.985 19.985 0 0 1 5.638-1.52c10.68-1.234 18.062 5.396 19.51 17.923 1.363 11.802-4.21 19.662-14.034 20.797-2.571.298-5.013-.022-7.582-.86l-.995-1.088-1.682-5.886-3.692.427 1.173 10.153c4.989.96 9.424 1.183 13.314.734 13.714-1.585 21.82-11.809 20.235-25.523-.998-8.637-6.234-15.783-13.753-18.99-3.231-1.363-7.162-1.845-11.514-1.342-4.417.51-8.875 1.828-13.052 3.847zM476.728 83.169l-33.744 5.452 1.726 10.68 3.407-.55.045-6.798.748-1.197 17.56-2.837 2.964 18.346-10.745 1.737-1.077-.835-1.417-4.612-3.08.498 2.33 14.415 3.08-.498-.118-4.889.769-1.065 10.745-1.737 2.679 16.578-15.136 2.445-1.076-.834-1.817-5.422-3.67.593 1.546 9.567 31.386-5.072-.424-2.62-3.798.21-1.262-.738-5.834-36.102.966-1.098 3.682-.93zM447.955 132.94l-.535-2.6-3.786.371-1.293-.682-7.37-35.821.918-1.138 3.639-1.087-.549-2.666-15.472 3.184.548 2.665 3.773-.437 1.292.683 3.184 15.472c-1.157.306-2.249.598-3.224.8-5.916 1.216-8.8.048-11.651-4.922-2.222-3.88-3.351-8.052-7.033-10.14-1.763-.993-4.029-1.137-6.954-.535-1.496.308-3.08.837-4.95 1.629l.507 2.47.586-.12c4.94-1.017 7.181-.665 9.4 2.877 1.8 2.814 2.6 6.377 5.036 8.993 1.741 1.877 4.233 2.788 7.592 2.977-6.7 3.005-9.462 7.368-8.311 12.96 1.645 7.995 7.543 10.644 18.075 8.477zm-11.277-.797-3.12.642c-8.062 1.658-12.471-.01-13.862-6.77-1.324-6.437 1.86-9.734 9.66-11.34.39-.08 1.561-.32 3.59-.67zM396.975 98.105l-33.128 8.42 2.665 10.486 3.345-.85-.558-6.775.639-1.259 17.24-4.382 4.578 18.012-10.55 2.681-1.146-.736-1.82-4.468-3.023.769 3.597 14.152 3.023-.769-.55-4.86.671-1.129 10.55-2.681 4.137 16.274-14.86 3.778-1.145-.736-2.29-5.24-3.603.916 2.387 9.392 30.813-7.832-.654-2.573-3.765.546-1.323-.623-9.01-35.444.865-1.178 3.585-1.254z" transform="matrix(-.68123 -.68617 .75794 -.61672 512.65 1399.32)"/><path style="opacity:.98999999;fill:#e9ddaf;fill-opacity:1;stroke-width:.1806781" d="M342.19 1120.62c-4.67-.36-11.268-1.681-19.954-3.995-12.785-3.405-20.132-5.234-30.691-7.637l-2.462-.56 2.816-1.683c8.607-5.145 11.794-6.968 25.011-14.305l.2-.111.345.271c.189.15 2.365 1.81 4.835 3.692 5.381 4.098 6.384 4.873 8.548 6.609a183.744 183.744 0 0 1 8.874 7.563c1.467 1.336 4.683 4.543 5.498 5.482 1.344 1.55 2.129 2.77 2.123 3.306-.002.185-.182.54-.36.706-.227.213-.712.418-1.286.544-.415.09-.742.112-1.864.125-.749.01-1.484.01-1.633-.01zM893.05 1120.615c-1.176-.15-1.875-.475-2.134-.995-.194-.389-.182-.648.049-1.108 1.468-2.922 12.478-13.183 20.963-19.538 1.22-.914 2.057-1.508 6.928-4.923l2.354-1.65.313.176c2.107 1.18 27.452 15.644 27.439 15.657-.01.01-1.597.399-3.527.864-4.617 1.113-11.933 2.973-23.054 5.86-8.789 2.284-12.768 3.253-17.068 4.158-3.186.671-6.293 1.193-8.439 1.418-.966.101-3.279.15-3.824.08z"/></g><path style="fill:#520;stroke-width:.518351" d="M475.766 724.855 375.055 783v116.29l98.531 61.345s27.347-19.216 26.627-18.188c-4.177-6.03-11.827-27.054-12.322-31.834-.54-6.774-.52-8.618.11-10.183.424-1.051 2.982-4.62 5.685-7.932 9.231-11.312 13.169-25.078 15.152-38.379 1.165-7.813 1.113-12.617-.242-22.285-1.02-7.28-1.59-9.804-3.196-14.123-1.075-2.892-2.22-5.699-2.545-6.236-.323-.538-1.13-2.209-1.789-3.713-1.899-4.332-7.599-13.307-11.36-17.887-3.747-4.56-9.386-10.142-13.161-13.027-2.918-2.23-5.333-4.953-7.799-8.79-1.03-1.602-1.977-2.902-2.105-2.888-.128.014-.607 1.017-1.065 2.228-.457 1.212-3.348 5.347-6.424 9.19-12.147 15.178-18.316 33.21-18.568 54.266-.19 15.806 2.986 27.436 10.984 40.212 6.14 9.807 14.367 20.177 25.983 28.504 2.802 2.009 3.776 4.342 5.281 12.649.4 4.718 1.737 21.3 1.027 22.383l-11.095 6.894-84.11-52.094 1.233-98.554 85.967-48.21 84.732 50.342-1.232 98.555-42.12 23.942 7.35 13.528 51.89-29.716V783Z"/><g style="fill:#333"><path d="M493.333 622.014c-5.152-.582-11.632-3.748-18.957-9.263-10.124-7.622-18.63-17.385-19.266-22.112-.187-1.396.665-4.279 1.599-5.408.372-.45 1.76-1.507 3.086-2.348 4.342-2.758 4.876-3.595 5.101-7.988.17-3.318.509-4.633 1.54-5.98 1.031-1.346 2.059-2.057 3.98-2.752 2.052-.744 3.605-.529 6.456.895 3.265 1.63 4.277 1.92 5.919 1.695.81-.11 2.267-.659 3.238-1.218 3.236-1.863 4.719-2.297 6.797-1.99 2.382.352 3.796 1.272 5.298 3.45 1.447 2.099 3.67 7.412 5.11 12.22 1.342 4.474 3.252 16.252 3.343 20.61.138 6.582-1.078 12.518-3.254 15.881-1.944 3.005-6.007 4.757-9.99 4.308zm27.333-33.134s-1.502-2.492-1.505-8.537c-.004-9.015 1.375-15.952 3.546-17.849 2.336-2.04 4.983-2.435 8.923-1.332 1.215.34 2.382.4 3.867.196 2.048-.281 2.218-.373 4.626-2.5 3.69-3.26 5.576-3.836 8.905-2.723 2.946.986 3.79 1.99 5.285 6.286.088 4.827 5.687 4.789 9.919 6.16 2.333 3.781-1.85 8.431-.688 10.795.62 1.26-13.119-6.735-16.262-4.739-3.398 2.157-.283-.25-7.546-.398l-6.24-.127zm-72.376-6.395c-1.823-4.692-3.974-13.138-4.721-18.536-1.083-7.82.012-17.134 3.331-28.355 1.494-5.05 2.9-8.861 7.906-21.44 5.14-12.913 6.797-17.785 7.715-22.696 1.294-6.915 1.323-9.447.232-19.77-1.372-12.989-1.375-17.209-.016-22.818 1.792-7.395 6.278-13.805 12.318-17.6 5.644-3.548 13.053-5.649 20.11-5.703 12.835-.1 22.842 5.824 28.214 16.702 2.126 4.304 3.087 7.976 4.875 18.636 1.676 9.994 2.321 12.51 4.552 17.752 2.546 5.983 5.152 9.987 13.933 21.407 13.726 17.85 18.737 25.799 22.508 35.701 2.596 6.815 4.003 18.866 3.296 28.225-.13 1.733-.275 3.204-.321 3.267-.046.064-1.378-.869-2.96-2.073-2.148-1.634-3.494-2.381-5.312-2.949l-2.435-.76-.634-1.92c-.904-2.734-3.285-6.09-5.62-7.921l-1.974-1.548-.43-3.13c-1.185-8.641-6.11-17.26-18.564-32.49-9.787-11.97-10.889-13.618-13.699-20.5-1.048-2.567-1.722-4.877-2.389-8.189-.878-4.36-1.009-4.731-2.389-6.768-1.679-2.48-6.052-6.21-7.108-6.065-.835.114-2.36 2.215-3.572 4.922-3.619 8.082-6.516 9.72-11.233 6.348-.772-.552-2.706-2.42-4.299-4.15-3.067-3.335-4.163-4.11-5.147-3.642-1.104.524-4.143 5.199-4.942 7.6-.704 2.117-.742 2.677-.443 6.413.515 6.415-.302 13.763-2.122 19.09-.475 1.392-1.823 4.73-2.995 7.42-5.637 12.935-7.487 17.494-9.032 22.25-2.73 8.41-3.636 15.134-2.828 21.017l.353 2.573-1.487 2.06c-1.683 2.33-2.806 5.287-3.03 7.976a86.095 86.095 0 0 1-.22 2.364c-.038.296-1.07 1.216-2.295 2.045-2.167 1.468-4.676 4.244-5.765 6.382l-.524 1.027z" style="fill:#333;stroke-width:.32525748"/><path d="M489.426 450.488c-.407.03-1.807.14-3.11.243-6.843.549-14.195.422-19.052-.327-2.03-.313-5.333-1.205-6.54-1.767-1.847-.86-2.773-1.825-2.944-3.07-.247-1.804 1.13-3.445 4.623-5.508 2.143-1.265 3.61-1.952 6.451-3.018 1.164-.438 2.131-.814 2.149-.838.017-.023 1.656-6.482 3.64-14.352 1.995-7.906 3.853-14.951 4.152-15.743.822-2.172 1.946-4.018 3.58-5.885 1.397-1.594 12.855-12.263 13.652-12.711.275-.155.461-.18.807-.106.899.19.887.082.835 7.663l-.048 6.961.4 1.697c.22.933.572 2.14.783 2.681.354.91 13.683 23.81 13.968 23.999.07.046 1.143.172 2.386.28 3.03.262 4.626.528 7.033 1.17 3.92 1.045 5.687 2.255 5.935 4.06.17 1.244-.461 2.423-2.008 3.748-1.012.867-3.951 2.615-5.823 3.464-4.327 1.962-10.843 3.926-17.965 5.414-1.893.396-11.507 1.846-12.904 1.946z" style="fill:#333;stroke-width:.13804165"/></g><path style="fill:#5df;stroke-width:1.85710001" d="M862.488 886.75c-58.306-38.436-60.866-42.926-81.548-130.963-.79-28.652 1.343-47.38 9.646-84.675 11.354-51.002 28.613-98.729 54.954-151.96 5.553-11.222 7.173-15.975 5.947-17.446-.927-1.111-8.232-5.829-16.234-10.483-27.575-16.037-73.884-47.735-97.287-66.59-110.893-89.346-148.09-176.815-103.474-243.326 39.454-58.816 136.626-99.186 276.804-114.997 19.048-2.149 37.421-3.834 40.831-3.744 10.803.283 11.308-.972 12.454-30.94 3.928-102.757 26.673-189.506 63.864-243.578 29.894-43.464 65.746-64.445 112.1-65.604 16.64-.417 53.96 8.134 71.855 16.46 63.458 29.533 128.707 87.988 191.78 171.81 8.223 10.93 15.84 20.076 16.924 20.324 1.085.249 8.845-3.112 17.244-7.468 90.606-46.996 177.169-72.655 251.363-74.51 23.655-.59 68.405 9.586 85.698 19.489 50.281 28.794 71.293 85.646 61.983 167.712-2.119 18.68-5.15 32.66-14.268 65.807-12.039 43.76-20.884 67.82-39.294 106.87-5.978 12.68-12.091 26.15-13.585 29.933l-2.716 6.878 18.991 11.19c106.377 62.687 182.9 136.304 207.454 199.574 25.717 66.268 3.902 119.394-66.536 162.038-54.131 32.772-133.765 54.753-231.966 64.028l-35.165 3.322-1.635 7.043c-.9 3.874-2.195 18.628-2.879 32.787-2.18 45.11-5.078 65.805-15.765 112.59-8.066 35.317-12.08 49.492-18.571 65.598-27.285 67.688-65.799 107.643-113.567 117.817-9.478 2.019-23.367 3.49-30.864 3.27-77.216-2.27-172.086-71.222-260.933-189.645l-15.132-20.17-5.259 2.347c-2.892 1.291-17.648 8.361-32.792 15.712-98.623 47.872-191.075 65.403-246.049 39.437-20.022-1.647-38.141 20.238-54.373 14.063zm56.664-50.131c33.322 2.464 83.095-6.492 133.383-24.002 42.622-14.84 109.756-45.503 110.928-50.665.257-1.134-5.173-11.72-12.066-23.526-17.047-29.192-42.46-77.94-56.508-108.393-6.384-13.84-12.886-26.2-14.448-27.468-1.562-1.268-11.775-5.392-22.696-9.165-35.435-12.24-87.001-33.452-134.675-55.397-6.611-3.043-10.88-4.198-12.357-3.341-6.022 3.495-33.58 67.34-46.749 108.304-18.608 57.886-23.975 117.535-13.327 148.133 10.201 29.316 30.342 42.697 68.515 45.52zm572.17 125.946c27.765-6.544 52.419-36.355 71.147-86.031 8.916-23.653 22.308-83.16 25.31-112.471 3.162-30.874 4.833-71.167 3.066-73.947-1.198-1.885-8.744-2.609-30.522-2.926-33.289-.486-88.376-3.972-123.005-7.785-13.124-1.445-25.786-2.664-28.138-2.708-2.66-.05-14.611 7.91-31.627 21.068-33.37 25.803-63.293 47.076-94.833 67.422-13.108 8.456-24.136 16.582-24.507 18.058-.816 3.247 26.108 38.908 49.65 65.764 43.18 49.259 86.187 84.426 125.75 102.829 17.243 8.02 46.287 13.42 57.71 10.727zm-202.54-276.886c14.365-10.313 26.355-19.697 26.645-20.853.4-1.595-17.349-6.199-73.67-19.106-42.796-9.807-74.367-16.333-74.596-15.42-.786 3.132 27.7 56.736 47.925 90.185l5.873 9.713 20.853-12.884c11.469-7.087 32.605-21.322 46.97-31.635zm54.882-80.8c18.393 3.164 35.413 5.795 37.821 5.846 7.374.156 67.534-54.636 118.989-108.372 30.362-31.708 60.888-66.81 62-71.293 1.126-4.545-15.194-69.636-27.209-108.517-16.151-52.268-43.26-125.547-47.355-128.008-6.044-3.633-73.395-21.731-124.403-33.43-52.85-12.121-116.748-24.115-126.17-23.684-3.929.18-42.91 34.147-75.559 65.84-42.766 41.514-102.449 106.63-104.23 113.717-.818 3.257 9.734 47.103 19.942 82.862 17.905 62.723 50.411 151.38 56.569 154.284 16.788 7.917 154.664 41.303 209.605 50.755zm-94.8-120.189c-22.502-11.558-35.982-23.836-50.453-45.953-21.82-33.348-25.848-61.821-14.232-100.602 9.863-32.926 27.084-54.344 57.64-71.686 18.785-10.66 34.172-15.623 54.207-17.481 79.282-7.353 147.254 51.81 146.076 127.143-.29 18.582-9.163 48.077-18.943 62.972-21.945 33.425-60.473 55.993-101.454 59.43-22.91 1.921-53.489-3.881-72.842-13.823zm-200.774 37.683c.848-.799-1.536-9.92-5.297-20.271-9.29-25.561-24.241-72.613-30.929-97.33-3.025-11.183-6.395-20.26-7.487-20.173-2.657.214-11.493 12.45-38.06 52.709-12.224 18.525-22.393 35.419-22.597 37.542-.316 3.296 2.193 5.081 17.152 12.203 13.324 6.344 76.404 33.488 84.43 36.331.685.243 1.94-.212 2.788-1.01zm458.186 101.192c36.772 2.454 78.375 3.096 81.67 1.26 2.402-1.338 2.45-7.428.263-32.79-3.883-45.01-8.267-76.118-10.81-76.701-1.216-.279-11.696 9.66-23.29 22.087-11.592 12.426-34.694 35.755-51.336 51.842-16.642 16.087-30.007 29.97-29.7 30.85.307.88 2.477 1.655 4.821 1.722 2.345.066 15.117.845 28.382 1.73zm-603.568-205.7c18.957-29.792 49.467-73.071 70.966-100.668l13.093-16.806-2.76-16.151c-7.4-43.316-12.815-83.262-16.047-118.368-1.957-21.247-4.155-39.555-4.886-40.683-1.546-2.389-49.955 1.59-82.525 6.783-89.506 14.27-156.935 41.39-186.337 74.945-18.97 21.65-18.12 47.862 2.666 82.278 28.28 46.822 81.807 94.397 160.98 143.078 12.593 7.742 23.83 13.962 24.973 13.82 1.143-.14 10.088-12.843 19.877-28.228zm780.766 204.347c123.714-11.39 220.815-46.567 249.021-90.216 30.947-47.89-37.316-135.181-169.592-216.867-11.899-7.348-22.848-13.402-24.332-13.453-1.64-.056-12.924 15.404-28.81 39.475-25.446 38.553-41.106 60.543-64.844 91.056-11.316 14.545-11.588 15.119-10.338 21.8 8.427 45.02 19.007 129.428 20.823 166.123.184 3.714 5.813 4.131 28.072 2.082zm-626.029-403.147c22.826-24.508 49.519-51.474 70.353-71.073 11.065-10.41 20.261-19.495 20.436-20.192.493-1.963-15.77-3.3-65.87-5.415-25.378-1.07-47.681-1.34-49.562-.596-3.035 1.198-3.123 4.75-.788 31.603 2.477 28.478 7.795 73.893 9.087 77.598 1.225 3.512 3.537 1.825 16.344-11.925zm565.538 136.13c9.633-12.204 52.756-78.208 53.794-82.338.84-3.346-.91-4.696-14.378-11.091-34.503-16.382-88.279-38.452-90.522-37.15-.757.44 2.749 12.447 7.791 26.683 10.024 28.3 25.717 78.721 30.558 98.183 1.686 6.778 3.917 12.518 4.959 12.757 1.042.239 4.55-2.931 7.798-7.044zM1053.796 59.87c38.966.227 91.012 3.56 141.458 9.056 9.377 1.021 18.175 1.53 19.552 1.13 1.376-.4 12.82-8.821 25.43-18.713 28.172-22.099 64.331-47.868 97.374-69.395 13.733-8.947 25.397-16.883 25.922-17.638.524-.754-6.56-11.204-15.745-23.223-47.738-62.473-94.65-107.73-138.657-133.766-70.088-41.465-108.827-29.058-144.413 46.251-10.232 21.654-28.405 93.955-31.573 125.611-3.046 30.437-5.147 71.55-3.889 76.084 1.292 4.654.263 4.461 24.54 4.603zm657.946 151.122c3.962-5.536 24.062-49.792 33.844-74.516 10.627-26.862 26.441-87.577 28.561-109.657 3.33-34.684-.737-67.604-10.526-85.179-2.358-4.234-8.015-10.748-12.57-14.476-11.105-9.087-36.707-16.37-59.101-16.811-42.78-.843-102.528 13.683-165.71 40.289-27.094 11.409-67.584 31.52-69.059 34.301-.635 1.197 4.228 11.208 10.806 22.247 16.15 27.1 40.283 73.218 56.178 107.362 7.196 15.453 13.916 28.82 14.935 29.702 1.02.882 12.371 5.416 25.227 10.076 35.971 13.037 84.755 32.949 113.876 46.48 32.555 15.127 30.456 14.49 33.539 10.182zm-258.55-94.527c.532-2.116-28.054-56.373-41.807-79.353-5.852-9.778-11.788-18.04-13.191-18.362-4.275-.98-91.954 58.67-93.285 63.463-.4 1.441 19.597 6.58 73.662 18.931 44.412 10.146 74.376 16.298 74.621 15.32z" transform="matrix(.13284 0 0 .13284 579.494 454.87)"/><g style="fill:#2a7fff"><path d="m830.865 800.867-.351 1.988c-2.939 16.64-6.285 25.7-11.559 31.297-2.11 2.24-5.579 4.407-8.545 5.338-4.107 1.29-9.249 1.623-15.877 1.028a151.788 151.788 0 0 0-2.883-.239c-.398-.023-7.396-1.058-15.552-2.299-15.02-2.284-17.746-2.63-21.873-2.779-4.031-.145-6.629.09-9.239.836-8.253 2.36-12.642 10.1-16.398 28.92-1.004 5.046-4.758 28.378-4.762 29.617-.007 2.03.557 4.204 1.621 6.258.677 1.306 2.49 3.741 3.723 5.002 6.38 6.522 16.95 11.621 30.357 14.645h.004c2.024.456 8.647 1.423 8.993 1.312.127-.04.91-.01 1.742.068 2.14.204 6.454.296 8.984.192 14.492-.595 25.335-5.24 28.863-12.367l.602-1.22 1.502-9.325 1.502-9.326-21.274-3.499-21.275-3.5.355-2.207.356-2.207 32.973 5.237c35.996 5.717 33.13 5.325 35.418 4.853 6.656-1.373 13.775-9.203 18.498-20.345 2.804-6.616 5.136-15.208 5.785-21.309 1.165-10.96.605-20.127-1.703-27.92-2.038-6.879-5.515-11.998-9.63-14.18-1.712-.907-2.578-1.094-11.736-2.523zM789.99 895.49a7.71 7.71 0 0 1 3.121.588c1.798.751 3.578 2.512 4.366 4.32 1.234 2.833.668 6.336-1.393 8.637-1.268 1.416-3.414 2.516-5.266 2.7-.839.083-2.426-.04-3.039-.235-4.682-1.492-7.164-6.614-5.324-10.988 1.282-3.05 4.373-4.964 7.535-5.022z" style="fill:#2a7fff;stroke-width:.14421923" transform="translate(5.301 .946)"/><path d="M776.299 749.451c-6.049.083-11.463.844-16.328 2.285-6.879 2.038-11.998 5.515-14.18 9.63-.91 1.711-1.094 2.577-2.523 11.736l-1.346 8.62 21.275 3.5 21.276 3.499-.356 2.207-.355 2.207-32.975-5.237c-30.395-4.827-28.527-4.927-29.285-4.822-3.13.434-9.643.987-12.397 3.065-7.71 5.815-13.73 17.467-17.162 33.218-1.003 4.605-1.574 11.686-1.43 17.702.38 15.794 5.608 27.586 13.493 30.437.749.27 2.992.672 9.865 1.76l8.902 1.41.352-1.988c1.554-8.786 3.372-16.024 5.248-20.893 5.058-13.126 12.739-18.04 26.936-17.23 3.86.22 6.034.505 19.67 2.582 14.915 2.271 18.238 2.698 22.734 2.916 9.984.482 15.437-1.482 19.437-7.002 3.34-4.607 5.668-11.232 7.899-22.475 1.04-5.222 4.765-28.375 4.77-29.617.03-9.227-11.264-18.785-28.247-23.904-5.476-1.651-9.844-2.616-13.681-3.024-4.106-.436-7.963-.631-11.592-.582zm-12.658 10.326a7.71 7.71 0 0 1 3.12.588c1.798.751 3.578 2.512 4.366 4.32 1.234 2.833.67 6.336-1.39 8.637-1.268 1.416-3.415 2.516-5.266 2.7-.84.082-2.428-.04-3.041-.235-4.682-1.491-7.164-6.616-5.325-10.99 1.283-3.049 4.374-4.962 7.536-5.02z" style="fill:#2a7fff;stroke-width:.14421923" transform="translate(5.301 .946)"/></g><path style="opacity:.98999999;fill:#fff;fill-opacity:1;stroke-width:.3079809" d="M537.47 793.891c-5.11-7.36-23.91-35.624-23.91-36.066 0-.174 1.509-3.588 2.93-7.422 9.232-24.898 12.193-41.345 12.194-61.919 0-20.945-3.526-39.077-13.996-80.726l-.862-7.424 6.47-9.053c9.619-13.462 14.723-17.286 15.104-17.284.332 0 5.483 1.808 23.804 7.38 20.562 6.254 36.925 10.075 49.91 11.593 4.633.542 13.938.726 18.551.263 14.578-1.464 32.404-6.117 55.564-13.515 12.095-3.863 17.897-5.224 18.518-5.224.779 0 5.784 5.816 14.711 16.052 4.063 4.658 7.634 8.856 7.937 9.195.531.597.166 1.223-3.114 14.33-9.066 36.233-12.118 55.755-12.112 74.984.003 9.497.704 16.426 2.894 27.202 2.378 11.696 5.796 20.46 10.034 31.831 1.59 4.265 2.757 8.814 2.757 9.146 0 .983-9.917 18.666-19.006 32.454-3.16 4.792-5.779 4.85-6.383 4.85-1.688 0-7.363-.521-19.108-3.394-21.818-5.337-29.38-7.223-45.761-8.032-8.133-.402-31.324-.203-37.574.323-14.514 1.222-22.998 3.902-44.987 9.574-6.873 1.773-12.963 2.525-13.205 2.519-.242-.006-.864-.923-1.36-1.637z"/><path style="fill:#000;fill-opacity:1;stroke-width:1.19164777" d="M625.002 74.02c-78.052-.239-139.14 5.56-207.346 19.685-91.714 18.993-188.384 55.984-217.148 83.094-9.264 8.73-12.252 13.1-13.86 20.254-1.563 6.956-.153 11.035 6.579 19.052 36.955 44.01 66.827 77.76 69.992 79.077 2.658 1.106 11.542 1.54 31.697 1.545 15.402.003 28.673.438 29.492.968 4.585 2.967-2.532 12.113-16.748 21.524-5.371 3.555-19.87 11.892-32.22 18.523-31.014 16.653-44.76 26.622-69.116 50.125l-12.94 12.487.503-26.19c.457-23.848.852-27.876 4.412-45.037 2.15-10.366 3.542-19.216 3.094-19.664-.449-.449-9.753-.77-20.676-.713-20.878.108-27.99 1.175-47.69 7.156-5.474 1.662-10.167 2.811-10.427 2.551-.828-.828 17.653-28.837 27.213-41.242 10.279-13.339 21.598-23.558 39.87-35.996 11.372-7.74 22.443-16.7 10.928-10.623-1.837.97-19.492 11.943-30.818 21.134-5.571 4.522-13.268 11.939-17.105 16.483-15.378 18.21-39.869 56.523-36.131 56.523.213 0 4.368-1.369 9.234-3.04 19.852-6.822 31.736-9.062 51.152-9.647 10.16-.306 19.097-.12 19.864.416 1.047.73.811 3.789-.946 12.281-4.23 20.45-5.767 34.875-5.775 54.21-.005 10.486.324 21.076.73 23.534.407 2.458 1.01 4.469 1.342 4.469.332 0 4.955-4.654 10.272-10.342 12.337-13.198 30.947-29.188 44.857-38.54 5.985-4.025 20.21-12.335 31.613-18.468 32.676-17.575 45.608-26.766 48.975-34.81 1.422-3.396 1.26-5.64-1.37-19.067-1.638-8.37-2.982-16.112-2.985-17.207-.005-2.361 2.767-3.323 33.957-11.795 58.107-15.782 123.006-27.937 180.535-33.81 91.78-9.37 182.851-2.809 290.166 20.908 32.878 7.266 84.06 20.979 86.166 23.084.395.396-.748 8.183-2.541 17.307-2.915 14.829-3.086 17.005-1.62 20.51 3.396 8.111 15.534 16.751 48.825 34.757 34.066 18.426 53.924 33.167 75.756 56.235 6.024 6.365 11.34 11.187 11.814 10.715 1.512-1.507 1.703-42.533.252-54.291-.768-6.227-2.643-17.485-4.166-25.018-2.066-10.22-2.415-13.942-1.379-14.666.764-.533 9.7-.718 19.86-.412 19.38.583 31.186 2.797 51.18 9.594 4.881 1.66 9.156 2.736 9.497 2.394 1.022-1.022-4.607-10.825-16.277-28.351-17.59-26.418-25.886-35.573-46.188-50.985-8.967-6.807-25.219-15.73-26.863-15.73-3.299 0 4.654 4.586 15.91 12.248 24.875 16.932 34.769 27.15 53.987 55.746 10.95 16.295 14.173 21.823 12.707 21.795-.509-.01-5.14-1.328-10.291-2.928-18.467-5.736-27.665-7.104-48.032-7.144-10.595-.022-19.631.326-20.08.775-.448.448.935 9.298 3.075 19.664 3.52 17.058 3.94 21.332 4.427 45.05l.537 26.206-12.955-12.5c-24.531-23.673-37.837-33.338-68.914-50.059-35.067-18.868-50.676-30.228-50.676-36.883 0-4.25 3.569-4.764 31.155-4.482 19.243.197 27.834-.15 30.943-1.254 3.432-1.218 10.449-8.704 34.631-36.941 47.51-55.478 45.37-52.384 42.78-61.828-4.796-17.484-29.168-34.71-79.589-56.254-99.62-42.567-221.398-65.778-347.107-66.162Zm-3.486 3.136c30.211.017 59.898.923 79.156 2.717 64.016 5.963 107.37 13.119 158.379 26.139 65.865 16.812 131.365 42.217 164.322 63.732 15.38 10.04 25.855 22.91 25.855 31.766 0 4.308-3.33 8.572-39.994 51.19-15.033 17.474-27.819 32.444-28.414 33.267-.83 1.15-3.316.459-10.726-2.983-34.066-15.821-118.225-39.146-184.219-51.056-49.368-8.91-90.08-13.62-136.742-15.823-87.844-4.146-197.918 10.708-305.955 41.29-23.973 6.785-50.283 15.337-64.719 21.035-4.79 1.89-11.225 4.7-14.299 6.244l-5.59 2.806-18.47-21.459c-34.402-39.97-47.905-56.267-49.733-60.02-2.589-5.313-1.185-10.873 4.778-18.92 8.772-11.841 26.612-23.365 59.005-38.11 63.848-29.064 145.508-51.733 225.471-62.594 29.053-3.946 33.13-4.398 59.582-6.592 21.363-1.772 52.1-2.645 82.313-2.629zM319.22 267.791c.081-.006.13-.001.146.018.284.337 5.341 23.823 5.338 24.793 0 .305-12.468.668-27.705.806-37.511.34-41.884-1.402-23.443-9.34 9.865-4.246 43.14-16.08 45.664-16.277zm599.625.002c2.552.201 35.763 12.004 45.685 16.275 5.522 2.377 10.25 4.962 10.506 5.745.271.83-1.615 1.983-4.525 2.767-3.216.866-14.255 1.206-31.059.96-14.338-.212-26.07-.442-26.07-.515-.012-.746 5.095-24.976 5.314-25.216.017-.019.066-.022.149-.016zM381.31 319.682l-48.39 54.066c-57.434 64.173-54.862 61.166-54.087 63.184.34.883 5.803 3.38 12.14 5.549 49.298 16.864 84.617 50.206 93.958 88.7 4.401 18.14 3.401 50.807-2.453 80.163-9.795 49.112-34.02 103.985-59.377 134.496-2.658 3.198-23.8 22.428-46.985 42.734-23.184 20.307-42.441 37.672-42.793 38.588-.376.981 5.665 9.442 14.688 20.574 69.914 86.258 107.18 131.557 108.718 132.147 1.251.48 6.917-4.66 18.153-16.47l16.332-17.169 9.474 9.053c19.944 19.054 41.702 33.036 67.612 43.445 20.164 8.1 58.767 27.534 71.642 36.067 15.561 10.312 24.846 21.45 47.655 57.175 8.36 13.093 10.06 15.06 15.359 17.754 3.277 1.667 7.299 3.472 8.938 4.012 5.282 1.74 14.806.235 22.232-3.514 6.274-3.167 7.744-4.646 12.822-12.914 9.532-15.518 28.328-42.16 34.535-48.953 11.357-12.427 44.79-31.275 87.05-49.074 29.64-12.485 48.466-24.523 68.991-44.123l9.348-8.928 16.332 17.168c11.361 11.942 16.893 16.952 18.174 16.461 2.768-1.062 123.164-149.577 123.164-151.93 0-1.184-17.91-17.74-42.85-39.613-23.566-20.669-45.348-40.684-48.404-44.478-22.39-27.8-44.653-76.604-55.287-121.204-7.125-29.88-9.689-65.958-6.055-85.203 6.4-33.888 28.296-61.173 66.262-82.57 7.379-4.158 30.742-13.797 36.52-15.066 4.642-1.02 5.775-3.655 3.044-7.084-1.148-1.443-24.283-27.404-51.41-57.69-45.874-51.218-49.592-55.066-53.195-55.066-9.537 0-41.907 7.713-59.842 14.26-22.951 8.377-50.832 25.005-93.574 55.804l-15.22 10.969h-44.003l-10.138 13.703c-5.577 7.537-10.626 13.703-11.22 13.703-.592 0-5.733-6.166-11.423-13.703l-10.344-13.703h-43.818l-13.031-9.47c-30.796-22.379-61.727-41.922-80.203-50.675-19.472-9.223-52.684-18.717-71.672-20.488zm3.293 7.2 6.568.823c17.584 2.197 48.28 11.155 65.213 19.033 16.538 7.695 48.757 28.141 81.437 51.68l13.514 9.732h42.428l11.449 15.32 11.447 15.321v33.537c.27 12.375-.086 25.917.049 37.112-.003.007.007-.006 0 .006.109 9.867.994 80.479 2.428 80.479 1.564 0 1.775-11.832 2.297-77.505l.595-75.074 11.198-14.598 11.197-14.597H686.676l14.799-10.536c31.277-22.27 61.122-41.52 75.847-48.921 16.08-8.082 51.267-18.7 69.543-20.983l6.633-.828 46.232 51.656c25.428 28.412 46.98 52.54 47.895 53.621 1.493 1.764 1.015 2.176-4.67 4.03-21.8 7.108-49.417 23.925-65.428 39.838-22.919 22.779-33.088 46.485-34.343 85.28.23 7.511 1.039 57.254 24.795 115.872l3.564 8.639-158.682-.002.778-8.043c1.14-11.783 4.588-34.579 5.402-35.725.29-.408 10.027-43.143 10.027-43.143s-8.483-10.038-14.574-17.107c-8.715-10.114-11.557-12.698-13.338-12.133-20.137 7.576-30.313 11.038-57.619 16.7-16.685 3.378-26.736 4.497-38.822 1.37l-58.356-14.361a116.705 116.705 0 0 0-12.627-3.098l-20.925 23.946-4.344 5.308 4.488 16.637c4.957 18.373 10.213 46.155 11.434 60.43l.789 9.234c-56.201 0-105.798-.012-158.631-.012l3.506-8.498c5.747-13.938 12.98-36.437 16.613-51.68 5.747-24.11 7.605-39.559 7.668-63.753.05-19.01-.31-23.49-2.603-32.534-3.14-12.377-8.758-25-15.813-35.535-6.692-9.993-24.608-27.538-35.748-35.007-11.072-7.425-33.114-18.601-43.512-22.061-7.079-2.356-7.686-2.806-6.177-4.576.92-1.08 22.472-25.208 47.896-53.62zm150.92 247.788c1.31.233 13.293 3.954 24.312 7.318 25.079 7.658 46.533 12.062 58.764 12.059 15.437-.003 37.843-4.774 67.02-14.27 8.104-2.638 15.172-4.795 15.704-4.795.533 0 5.93 5.698 11.992 12.663l11.024 12.662-4.965 19.81c-9.535 38.04-12.548 63.782-9.852 84.158 1.816 13.72 6.334 31.624 10.848 42.989 1.947 4.9 3.54 9.329 3.54 9.842 0 .95-22.028 35.802-23.67 37.45-.498.5-7.039-.689-14.536-2.638-28.41-7.387-40.076-8.953-66.66-8.953-26.642 0-38.853 1.644-66.373 8.935-7.34 1.945-13.566 3.536-13.834 3.536-.268 0-6-8.445-12.74-18.768L513.846 757.9l2.699-7.15c16.389-43.414 16.869-71.749 2.21-130.62l-4.929-19.796 10.604-12.654c8.007-9.556 11.093-13.01 11.093-13.01zM364.581 690.578h160.324l-.011 3.276c-.027 12.338-6.537 39.868-13.153 55.617l-3.465 8.248 2.616 4.263c10.848 17.694 25.058 38.227 26.457 38.227.93 0 10.442-2.127 21.136-4.727 10.695-2.599 25.144-5.547 32.11-6.552 16.008-2.311 43.535-2.292 58.968-.01 29.994 6.377 52.489 12.103 52.489 12.103s15.186-13.735 29.498-41.68c.405-1.057-3.035-4.798-4.567-8.261-5.47-14.925-13.368-39.519-13.777-57.23l-.021-3.274h160.398l2.498 5.14 2.496 5.141 35.324 55.533 10.18 8.707c25.165 21.523 70.794 62.042 71.168 63.2.227.703-9.819 13.84-22.326 29.195a36111.16 36111.16 0 0 0-34.824 42.812c-6.646 8.193-13.666 16.75-15.6 19.014 0 0-8.314 10.383-24.484 30.238-9.435 11.581-17.477 21.03-17.873 21-.397-.03-7.69-7.536-16.206-16.681-8.515-9.146-16.007-16.63-16.65-16.63-.642 0-4.458 3.262-8.478 7.247-10.627 10.778-21.935 21.61-35.325 28.586-27.05 14.094-54.005 25.423-80.457 39.256-40.745 21.304-48.268 28.411-76.303 72.082-9.896 15.414-11.198 16.932-17.112 19.941-3.52 1.792-7.07 3.267-7.89 3.278-1.184.016-1.488-31.866-1.488-155.49 0-102.88-.759-166.089-1.547-166.089-.789 0-.838 63.21-.838 166.088 0 123.625-.304 155.507-1.488 155.49-.82-.01-4.37-1.485-7.891-3.277-5.914-3.01-7.216-4.527-17.111-19.941-15.728-24.499-29.296-42.034-37.534-48.506-15.075-11.844-50.143-30.498-80.166-42.647-29.463-11.922-47.836-23.849-72.373-46.978-5.396-5.087-10.336-9.066-10.978-8.844-.643.222-7.979 7.642-16.301 16.49-8.322 8.848-15.498 16.238-15.945 16.422-.448.185-14.436-16.437-31.086-36.94a54975.145 54975.145 0 0 0-56.893-69.923c-14.64-17.955-26.874-33.31-27.185-34.123-.52-1.356 20.52-20.464 64.527-58.596 23.035-19.96 34.724-35.44 50.434-66.789zM68.195 731.082v.004c-.76-.005-.929 1.282-.484 3.88 1.134 6.627 7.701 62.732 9.055 77.36 3.904 42.201 18.011 79.208 42.795 112.262 11.104 14.81 47.057 51.015 70.86 71.355 28.275 24.161 68.856 55.315 108.995 83.678 7.358 5.2 13.377 9.844 13.377 10.322 0 .48-7.255 5.062-16.121 10.182-17.185 9.924-20.82 13.75-20.82 21.904 0 9.06 4.174 13.63 30.386 33.256 76.444 57.24 170.092 100.202 249.055 114.258 11.335 2.018 19.455 3.02 44.09 5.441 9.517.936 48.026-.48 62.562-2.3 79.483-9.952 171.617-48.389 254.711-106.264 16.99-11.833 39.24-29.628 42.317-33.844 1.237-1.695 2.555-5.355 2.927-8.13.838-6.25-2.717-14.114-7.64-16.905-17.128-9.708-28.986-17.076-28.705-17.836.186-.506 11.333-8.815 24.77-18.467 96.94-69.635 154.518-122.278 180.818-165.322 16.63-27.219 26.995-59.27 30.146-93.223 1.389-14.958 7.95-71.058 9.092-77.726 1.294-7.56-2.608-4.012-11.147 10.129-9.166 15.181-15.203 26.727-17.757 33.967-1.588 4.499-14.502 28.296-15.356 28.296-.238 0-3.778-4.156-7.869-9.236-5.413-6.72-10.125-14.832-17.305-29.79-5.426-11.307-10.409-20.556-11.074-20.556-.665 0-1.498 1.741-1.85 3.872-1.086 6.577-4.216 42.237-5.414 61.667-1.323 21.479-3.2 30.288-8.97 42.092-7.03 14.38-15.058 23.766-33.262 38.889-47.242 39.245-127.995 101.115-159.168 121.945-27.374 18.292-41.171 31.019-47.426 43.746-2.685 5.465-3.22 8.14-3.22 16.088 0 8.341.442 10.331 3.537 15.918 1.945 3.512 5.626 8.174 8.18 10.36l4.642 3.974-10.881 7.145c-21.016 13.8-55.016 29.725-83.531 39.127-106.237 35.025-224.135 26.614-321.735-22.957-9.509-4.83-22.306-12.038-28.437-16.018l-11.149-7.236 5.344-5.028c8.308-7.816 10.95-13.9 10.975-25.285.017-7.974-.507-10.605-3.201-16.088-6.14-12.493-20.272-25.633-45.69-42.476-41.8-27.703-169.379-127.427-180.672-141.229-15.432-18.861-20.698-33.59-22.511-62.97-1.234-19.998-4.312-55.42-5.358-61.668-.356-2.13-1.18-3.871-1.83-3.871-.65 0-5.682 9.301-11.183 20.671-6.957 14.377-12.211 23.45-17.25 29.791-3.986 5.015-7.477 9.12-7.76 9.12-.915 0-13.763-23.551-15.438-28.297-2.554-7.24-8.59-18.785-17.756-33.967-5.603-9.28-9.211-14-10.664-14.01zm3.69 8.95 6.174 10.1c7.306 11.953 12.137 21.336 15.392 29.903 2.79 7.341 16.747 32.092 18.098 32.092.512 0 4.479-4.157 8.814-9.236 6.06-7.1 10.033-13.63 17.188-28.25 8.338-17.04 9.378-18.65 10.017-15.493 1.018 5.026 3.006 28.852 4.32 51.786 2.403 41.922 11.182 58.923 44.917 86.988 44.042 36.64 125.094 98.642 161.27 123.365 23.098 15.787 37.994 29.442 42.866 39.297 2.046 4.139 3.078 8.507 3.38 14.3.382 7.36.026 9.113-3.009 14.893-2.202 4.195-5.847 8.49-10.136 11.946-9.191 9.588-42.801 19.637-42.858 21.843 0 0 3.448 1.353 13.442-2.904.318-.208 12.865-4.956 17.799-7.494l8.968-4.613 10.098 6.556c34.104 22.152 73.114 38.498 120.018 50.287 51.8 13.021 118.343 15.08 174.898 5.41 51.636-8.827 105.494-29.392 145.959-55.732l10.129-6.594 8.088 4.399c11.324 6.159 31.037 11.87 32.428 10.48.706-.706-4.874-1.736-6.67-2.482-30.48-12.659-41.245-19.92-47.016-31.717-2.728-5.575-3.119-7.673-2.713-14.566.317-5.387 1.447-10.027 3.412-14.012 4.191-8.5 19.8-23.582 35.113-33.93 39.257-26.526 114.812-83.992 166.93-126.965 35.562-29.321 44.583-46.36 46.996-88.755 1.196-20.995 3.147-44.424 4.268-51.22.65-3.944 1.143-3.214 10.03 14.897 7.171 14.617 11.178 21.191 17.232 28.28 4.337 5.079 8.348 9.234 8.912 9.234 1.347 0 14.692-23.865 17.824-31.875 3.441-8.8 8.396-18.381 15.568-30.12l6.174-10.099-.7 7.149c-.383 3.932-1.738 14.926-3.01 24.43-1.274 9.503-2.897 24.249-3.61 32.769-3.585 42.827-14.432 76.05-34.772 106.51-28.05 42.007-84.905 92.54-184.513 163.994-49.488 35.5-58.517 44.35-49.455 48.478 3.745 1.707 14.403-.064 34.558-5.744 7.865-2.216 17.249-4.35 20.854-4.74 5.645-.611 7.027-.335 9.964 1.992 3.132 2.481 3.363 3.194 2.83 8.735-.523 5.443-1.185 6.59-6.789 11.742-8.955 8.234-35.104 27.613-53.076 39.334-77.903 50.807-157.077 83.074-230.582 93.974-18.503 2.744-63.003 3.967-80.437 2.21-77.307-7.793-164.51-41.643-247.862-96.21-18.311-11.988-44.257-31.199-53.04-39.275-5.64-5.186-6.301-6.327-6.825-11.775-.528-5.494-.287-6.263 2.694-8.608 4.618-3.633 9.345-3.288 28.886 2.113 21.5 5.943 34.265 8.17 36.998 6.457 3.388-2.123 2.998-5.85-1.1-10.517-5.9-6.72-17.978-16.156-51.109-39.932-114.814-82.405-169.88-134.53-194.742-184.363-12.836-25.73-19.42-50.65-22.133-83.783-.724-8.848-2.335-23.864-3.58-33.367-1.244-9.504-2.603-20.496-3.017-24.428zm245.217 352.27 9.462 7.212c11.346 8.648 20.786 17.601 20.786 19.713 0 2.654-9.26 1.674-25.62-2.709-8.52-2.282-19.367-5.034-24.103-6.115l-8.611-1.965 6.228-3.724c3.426-2.049 9.745-5.68 14.043-8.069zm604.11.062 13.938 7.94 13.938 7.94-5.639 1.358c-3.1.746-14.095 3.561-24.431 6.256-19.815 5.165-28.276 6.129-28.276 3.222 0-2.12 14.114-15.242 23.404-21.76z"/><path d="M386.81 630.915v29.568h10.56l2.688-17.856 2.688-2.88h29.568v108.48l-3.456 2.688-12.864.96v7.872h50.112v-7.872l-12.864-.96-3.456-2.688v-108.48h29.568l2.688 2.88 2.688 17.856h10.56v-29.568z" transform="translate(178.013 -12.32)" aria-label="T" style="font-style:normal;font-variant:normal;font-weight:400;font-stretch:normal;font-size:192px;line-height:1.25;font-family:'Bitstream Charter';-inkscape-font-specification:'Bitstream Charter';letter-spacing:0;word-spacing:0;fill:#000;fill-opacity:1;stroke:none"/><path style="opacity:.98999999;fill:#f4eed7;fill-opacity:1;stroke-width:.61596173" d="M239.44 264.78c-50.637-59.082-51.18-59.812-49.636-66.71 1.596-7.136 10.129-17.402 20.715-24.926 21.68-15.408 65.663-35.08 113.617-50.818 71.98-23.623 150.038-38.2 232.833-43.482 16.223-1.034 88.167-1.45 109.333-.631 48.964 1.894 106.542 9.089 155.893 19.48 78.475 16.525 161.587 46.546 201.569 72.81 12.06 7.922 22.181 19.114 24.5 27.092 2 6.879 3.32 5.052-41.824 57.855l-26.408 30.889-2.042-.564c-1.124-.31-4.912-1.827-8.418-3.371-19.28-8.49-48.276-18.114-83.987-27.88-88.736-24.265-173.896-37.362-255.316-39.264-60.766-1.42-141.02 7.585-217.435 24.396-60.28 13.26-124.566 32.646-148.995 44.928-2.732 1.374-5.043 2.493-5.136 2.487-.092-.006-8.76-10.037-19.262-22.29z"/><path style="opacity:.98999999;fill:#e9ddaf;fill-opacity:1;stroke-width:.05444384" d="M281.435 293.37c-11.17-.202-16.475-.806-18.009-2.052-.89-.722-.335-1.713 1.702-3.038 1.973-1.284 5.864-3.15 10.617-5.09 11.566-4.725 41.64-15.354 43.441-15.354h.18l.141.531c.873 3.283 5.156 23.322 5.156 24.123 0 .14-.06.157-.79.224-2.352.218-10.247.444-20.988.604-5.035.075-18.425.108-21.45.053zM942.594 293.556c-8.835-.105-27.007-.438-28.573-.523l-.616-.034.036-.226c.374-2.355 4.11-20.166 5.07-24.167.163-.683.207-.803.294-.803.057 0 .478.096.935.213 6.22 1.595 36.297 12.4 44.904 16.133 3.65 1.583 7.418 3.483 9.091 4.587 1.38.91 1.548 1.213 1.003 1.818-.79.88-3.22 1.884-5.412 2.237-2.18.35-5.71.575-11.16.708-3.15.077-11.345.107-15.572.057z"/><path style="opacity:.98999999;fill:#f4eed7;fill-opacity:1;stroke-width:.15399045" d="m204.73 229.873-.773.727c-2.262 2.122-7.689 6.179-15.172 11.343-19.014 13.122-29.634 22.95-40.597 37.57-7.97 10.629-21.47 30.861-24.774 37.126-.79 1.499-.839 1.757-.33 1.757.567 0 5.565-1.274 9.033-2.304 21.438-6.365 26.612-7.166 47.506-7.348 12.52-.109 21.309.18 21.848.719.197.197-.076 2.868-.688 6.701-.592 3.71-1.212 7.004-2.84 15.092-2.937 14.597-3.494 19.961-3.865 37.226l-.103 4.856-.018-.37c-.011-.234-.022-.096-.03.34-.005.405-.12 6.433-.255 13.395s-.246 12.865-.246 13.12v.46l.531-.521a6143.36 6143.36 0 0 1 14.797-14.262c4.347-4.155 8.354-7.852 12.047-11.115l1.156-1.022h-.02l1.167-1.043c4.406-3.938 12.537-10.313 18.037-14.142 8.805-6.13 17.665-11.471 31.562-19.03 22.553-12.265 33.56-18.75 39.813-23.45 9.501-7.144 14.42-13.552 12.867-16.762-.19-.393-.558-.835-.838-1.008-1.106-.684-6.732-.902-28.275-1.088-24.903-.216-30.748-.516-33.213-1.71-2.825-1.367-23.96-24.886-52.534-58.454l-5.793-6.803z"/><path style="font-style:normal;font-variant:normal;font-weight:400;font-stretch:normal;font-size:96px;line-height:1.25;font-family:'Bitstream Charter';-inkscape-font-specification:'Bitstream Charter';letter-spacing:0;word-spacing:0;fill:#000;fill-opacity:1;stroke:none;stroke-width:4.27561522" d="m682.739 107.227-21.781-.044.037 4.958 7.06 1.502 1.172 1.739-12.297 58.121-17.751-66.365-7.367-.014-16.454 64.932-14-57.307.828-1.734 6.62-.978-.037-4.959-23.569-.048.038 4.96 6.642 1.748 18.247 76.53 7.05.017 16.96-67.782 18.289 67.851 7.155.015 16.158-76.46 7.036-1.723zm34.509 2.037-28.231 75.53-6.165 1.012-.239 5.072 20.594 1.6.238-5.072-6.8-1.147-.969-1.815 8.573-23.05 24.794 1.929 6.45 24.215-.817 1.675-6.542.112-.238 5.073 23.848 1.855.239-5.073-6.235-1.975-21.566-79.402zm44.658 4.774-.47 4.923 5.89 1.6 1.612 1.982-6.47 67.801-1.942 1.467-6.018-.248-.482 5.044 24.887 3.601.482-5.044-5.902-1.479-1.613-1.978 2.795-29.288c1.894.15 3.683.284 5.252.511 9.515 1.377 13.288 5.165 15.149 15.664 1.444 8.193 1.097 16.254 5.623 22.148 2.17 2.81 5.515 4.416 10.22 5.096 2.406.348 5.056.358 8.264.074l.446-4.677-.942-.136c-7.947-1.15-11.153-3.111-12.76-10.704-1.33-6.056-.789-12.839-3.177-18.923-1.703-4.363-5.012-7.461-9.983-9.803 11.574-1.319 17.88-7.394 18.89-17.977 1.444-15.136-6.147-23.345-23.087-25.796zm-187.567-5.75-50.29 3.37.285 4.952 6.027.341 1.882 1.612 3.898 68.204-1.686 1.853-5.948 1.02.29 5.075 54.067-3.622-1.154-20.176-5.458.365-1.071 12.621-1.357 2.08-28.135 1.883-1.981-34.658 17.217-1.153 1.576 1.757 1.56 8.844 4.935-.33-1.558-27.232-4.933.33-.535 9.106-1.37 1.832-17.218 1.154-1.79-31.319 24.252-1.622 1.576 1.757 2.072 10.423 5.878-.393zm204.176 13.892 5.019.727c12.966 1.876 18.793 7.459 17.571 20.256-1.162 12.183-7.58 16.12-20.128 14.304-.628-.09-2.51-.362-5.74-.954zm53.367 2.282-2.762 18.779 5.705 1.233 3.118-11.027 1.72-1.514 15.968 3.45-10.132 68.895-2.118 1.303-7.035-.89-.736 5 27.062 5.848.734-5-6.857-2.11-1.615-2.112 10.132-68.893 15.968 3.45 1.181 2.142-.216 11.655 5.703 1.233 2.762-18.779zm-113.564-2.078 9.207 35.109-21.222-1.65zm-225.604-6.59c-2.478-.166-5.216-.068-8.216.29l-26.667 3.175.467 4.933 6.03.031 1.941 1.516 6.429 67.966-1.614 1.939-5.902 1.326.477 5.06 27.608-3.288c17.778-2.116 26.476-11.886 25.006-27.429-1.143-12.088-8.86-18.778-21.316-17.42 9.735-4.402 14.265-11.301 13.378-20.676-1.042-11.025-6.885-16.703-17.621-17.423zm-39.133 3.97-21.211 3.611.644 4.909 6.52.27 1.16 1.559-13.166 35.737-20.34-31.039.863-1.526 5.83-1.745-.645-4.909-24.123 4.107.645 4.91 6.503.145 26.316 39.305 3.417 26.014-1.439 2-6.99 1.819.66 5.03 26.932-4.582-.66-5.033-7.152.591-1.889-1.435-3.627-27.609 16.264-44.545 6.132-2.675zm31.936 1.925c8.891.058 13.684 4.51 14.51 13.252 1.133 11.966-4.443 17.87-17.514 19.426-1.255.15-2.614.31-3.985.348l-2.997-31.701c2.602-.435 4.564-.919 5.924-1.08a32.641 32.641 0 0 1 4.062-.245zm434.474 23.276c-10.607-.208-18.314 6.37-20.556 17.415-2.368 11.668 2.666 17.861 12.855 26.968 10.009 8.927 15.505 12.834 13.478 22.818-1.709 8.42-8.456 12.813-18.385 9.9-4.605-1.351-8.3-3.456-10.902-6.131l-.913-2.436 1.578-14.194-6.038-1.771-4.298 21.172c4.22 3.787 10.273 7.092 17.643 9.254 16.376 4.805 28.536-2.206 31.416-16.4 1.074-5.293.442-10.195-1.818-14.554-3.61-6.795-8.747-10.339-13.454-14.397-8.464-7.454-12.766-11.904-11.13-19.963 1.782-8.781 8.173-13.022 16.873-10.47 3.582 1.051 6.481 2.793 8.698 5.227l1.12 2.497-.783 11.877 5.323 1.563 3.783-18.645c-5.575-4.057-11.085-6.821-16.715-8.473-2.725-.8-5.327-1.21-7.775-1.257zm-558.345-6.835c-3.265-.194-6.981.182-11.16 1.11l-26.317 5.841.82 4.873 6.007-.573 2.04 1.314 11.313 67.137-1.467 2.096-5.781 1.915.842 4.997 24.562-5.454-.842-4.994-5.984.695-2.043-1.315-4.885-29c1.837-.534 3.571-1.044 5.119-1.388 9.391-2.085 13.95.189 18.42 9.562 3.48 7.317 5.228 15.145 11.044 19.163 2.784 1.91 6.374 2.25 11.018 1.22 2.374-.528 4.893-1.465 7.865-2.883l-.781-4.631-.929.205c-7.843 1.74-11.392 1.013-14.873-5.672-2.823-5.314-4.054-11.994-7.888-16.957-2.741-3.563-6.682-5.343-12.006-5.805 10.653-5.398 15.077-13.457 13.312-23.936-1.894-11.24-7.613-16.94-17.406-17.52zm-6.134 6.764c7.46.311 11.782 4.519 13.383 14.023 2.032 12.063-3.05 18.118-15.433 20.868-.62.137-2.476.55-5.696 1.138l-5.727-33.993 4.952-1.102c3.199-.71 6.034-1.038 8.521-.934zm-39.308 2.196-57.778 15.788 3.82 18.601 5.623-1.537-.874-11.625 1.061-2.203 15.748-4.303 14.007 68.245-1.493 2.196-6.729 2.475 1.017 4.952 26.69-7.292-1.016-4.954-6.976 1.268-2.187-1.186-14.007-68.248 15.748-4.303 1.801 1.42 3.738 10.844 5.625-1.537zm177.182 11.599c8.968.114 13.792 4.888 14.721 14.71 1.178 12.459-4.828 18.289-18.84 19.957-2.197.261-4.508.411-7.041.464l-3.115-32.937c4.032-.979 7.46-1.635 10.179-1.959a31.364 31.364 0 0 1 4.096-.236z"/><path style="opacity:.98999999;fill:#f4eed7;fill-opacity:1;stroke-width:.3079809" d="M1035.717 391.49c-27.04-26.16-39.2-35.343-67.046-50.638-4.371-2.4-10.72-5.892-14.107-7.76-17.725-9.767-30.975-18.4-37.256-24.276-5.097-4.768-6.417-9.303-3.13-10.756 2.72-1.204 4.563-1.296 30.377-1.527 26.02-.232 28.128-.34 30.544-1.569 2.658-1.352 7.752-6.53 18.905-19.22 4.71-5.357 31.834-36.938 36.438-42.423l2.261-2.695 1.122.874c.617.481 5.003 3.486 9.746 6.679 22.488 15.136 31.677 23.076 42.936 37.104 10.075 12.552 29.05 41.023 28.615 42.934-.08.351-1.128.14-5.182-1.041-14.327-4.178-17.067-4.941-20.374-5.68-9.067-2.022-15.59-2.643-29.98-2.85-12.107-.173-22.562.203-22.947.826-.458.74.582 7.401 3.403 21.789 3.09 15.766 3.49 20.094 3.976 43.038.169 7.96.384 17.004.48 20.095.094 3.092.132 5.613.084 5.604-.048-.01-4.037-3.838-8.865-8.509z"/><path style="opacity:.98999999;fill:#f4eed7;fill-opacity:1;stroke-width:.61596173" d="M877.847 1118.104c-24.863-10.599-35.706-18.279-41.044-29.07-2.187-4.422-2.398-5.304-2.591-10.807-.256-7.293 1.355-14.502 4.37-19.551 2.554-4.277 13.223-15.468 20.682-21.694 3.176-2.651 11.637-8.912 18.8-13.912 43.22-30.165 106.836-78.595 155.93-118.706 28.79-23.522 40.604-37.792 46.47-56.13 3.487-10.899 5.018-21.413 6.5-44.657 1.017-15.938 3.158-40.573 3.81-43.83.366-1.829.434-1.87 1.262-.765.482.644 4.162 7.684 8.18 15.645 4.016 7.961 8.961 16.97 10.99 20.019 4.247 6.385 13.95 17.555 15.25 17.555 1.839 0 13.153-19.923 18.715-32.954 5.696-13.346 19.825-38.309 20.202-35.693.1.696-1.065 11.368-2.59 23.715s-3.348 28.408-4.051 35.692c-3.617 37.484-9.865 61.232-22.85 86.85-11.28 22.256-24.401 39.67-47.974 63.67-34.926 35.56-73.073 66.48-158.012 128.076-32.127 23.298-42.794 32.715-42.942 37.91-.03 1.07-.36 1.94-.731 1.933-.372-.01-4.141-1.491-8.376-3.296z"/><g aria-label="LABORARE" style="font-style:normal;font-weight:400;font-size:58.6379776px;line-height:1.25;font-family:sans-serif;letter-spacing:0;word-spacing:0;fill:#000;fill-opacity:1;stroke:none;stroke-width:2.93189883"><path d="m623.417 73.947-28.087.216.082 10.671 3.049-.023.943-7.044.813-.944 13.252-.102.254 33.13-.99.828-3.34.377.018 2.346 14.307-.11-.018-2.345-3.696-.324-1.003-.813-.248-32.309.99-.828 3.692-.322zM579.3 114.476l12.414-37.17 3.374-.824-.085-2.403-11.486.407.085 2.403 3.82.158.615.8-3.765 11.34-13.83.49-4.615-11.044.381-.835 3.623-.421-.085-2.403-13.303.471.085 2.403 3.541.578 15.364 36.187zm-1.155-6.12-6.61-16.02 11.837-.418zM557.964 114.798l-.166-2.34-3.36-.113-1.052-.748-2.292-32.228.936-.89 3.313-.53-.17-2.398-15.442 1.099c-9.943.707-14.975 5.18-14.45 12.55.407 5.732 4.58 9.02 11.544 8.584-5.507 1.92-8.16 5.107-7.844 9.552.457 6.434 5.119 9.16 14.068 8.523zM547.107 97.7l1.07 15.032c-1.459.162-2.562.358-3.322.412-6.434.458-9.763-1.716-10.1-6.453-.404-5.674 2.814-8.372 10.125-8.892.702-.05 1.462-.104 2.227-.1zm-1.319-18.542 1.11 15.617c-2.264.396-4.185.65-5.706.759-6.493.461-9.83-1.829-10.208-7.152-.42-5.907 3.035-8.563 10.873-9.12 1.228-.088 2.52-.121 3.931-.104zM505.063 120.355c5.01-.574 9.179-2.823 12.287-6.603 3.469-4.234 4.906-9.711 4.178-16.06-.728-6.35-3.375-11.418-7.777-14.809-3.753-2.875-8.44-4.108-13.391-3.54-6.758.775-12.196 4.822-14.817 10.789-1.593 3.606-2.143 7.564-1.648 11.875.728 6.35 3.426 11.352 7.764 14.691 3.883 2.978 8.394 4.232 13.404 3.657zm-.36-3.146c-7.516.862-13.449-5.068-14.691-15.904-1.243-10.835 3.187-18.013 10.702-18.875 7.573-.868 13.513 5.12 14.755 15.956 1.256 10.952-3.193 17.955-10.767 18.823zM483.58 121.928l-.372-2.316-3.356.184-1.115-.652-5.135-31.899.853-.969 3.253-.82-.382-2.374-13.778 2.218.382 2.374 3.347-.242 1.114.652 2.219 13.778c-1.033.226-2.008.442-2.876.582-5.269.849-7.769-.293-10.096-4.789-1.812-3.509-2.65-7.235-5.82-9.219-1.518-.943-3.512-1.157-6.118-.737-1.331.214-2.75.62-4.431 1.248l.354 2.2.52-.084c4.4-.709 6.365-.312 8.189 2.898 1.48 2.554 2.05 5.728 4.1 8.13 1.466 1.724 3.63 2.623 6.588 2.92-6.03 2.395-8.633 6.14-7.832 11.12 1.147 7.12 6.252 9.684 15.63 8.174zm-9.922-1.135-2.78.448c-7.178 1.156-11.006-.485-11.975-6.506-.923-5.731 2.014-8.52 8.96-9.639.348-.056 1.39-.224 3.194-.455z" style="font-style:normal;font-variant:normal;font-weight:400;font-stretch:normal;font-family:'Bitstream Charter';-inkscape-font-specification:'Bitstream Charter';stroke-width:2.93189883" transform="matrix(-.91769 .56708 -.53662 -.96978 1496.634 806.863)"/><path d="m433.36 131.14 6.19-38.696 3.194-1.363-.476-2.357-11.266 2.274.476 2.356 3.794-.466.737.689-1.865 11.802-13.565 2.737-6.354-10.143.24-.886 3.505-1.007-.475-2.356-13.048 2.633.476 2.356 3.588-.006 21.056 33.198zm-2.137-5.85-9.134-14.727 11.611-2.343zM412.63 134.869l-.562-2.278-3.33.46-1.164-.56-7.736-31.369.77-1.035 3.176-1.085-.576-2.335-13.55 3.342.576 2.334 3.315-.515 1.165.558 3.341 13.55c-1.01.31-1.964.605-2.818.816-5.18 1.278-7.766.345-10.455-3.944-2.094-3.35-3.234-6.994-6.557-8.71-1.59-.817-3.595-.866-6.157-.234-1.31.323-2.69.845-4.315 1.608l.534 2.163.512-.126c4.327-1.067 6.318-.833 8.399 2.217 1.684 2.423 2.513 5.54 4.753 7.766 1.602 1.598 3.833 2.316 6.805 2.368-5.812 2.883-8.1 6.83-6.892 11.725 1.727 7.003 7.025 9.139 16.248 6.864zm-9.983-.316-2.733.674c-7.06 1.74-11.009.42-12.47-5.501-1.39-5.636 1.308-8.657 8.14-10.342.342-.084 1.367-.337 3.145-.715zM366.43 105.866l-29.01 8.39 2.655 9.181 2.93-.847-.689-5.966.528-1.13 15.097-4.365 4.56 15.772-9.237 2.672-1.033-.617-1.736-3.893-2.648.766 3.584 12.392 2.647-.765-.625-4.275.56-1.017 9.238-2.672 4.121 14.252-13.012 3.763-1.033-.617-2.173-4.56-3.154.912 2.378 8.224 26.982-7.802-.652-2.254-3.308.59-1.186-.51-8.975-31.039.73-1.065 3.128-1.21z" style="font-style:normal;font-variant:normal;font-weight:400;font-stretch:normal;font-family:'Bitstream Charter';-inkscape-font-specification:'Bitstream Charter';stroke-width:2.93189883" transform="matrix(-.91769 .56708 -.53662 -.96978 1496.634 806.863)"/></g><path style="opacity:.98999999;fill:#f4eed7;fill-opacity:1;stroke-width:.61596173" d="M590.953 1270.85c-24.353-2.387-47.293-6.584-70.528-12.904-55.823-15.184-112.88-40.888-169.082-76.17-24.632-15.464-56.745-38.91-66.29-48.398-4.123-4.097-5.161-6.594-5.161-12.407 0-3.566 1.454-5.55 5.222-7.125 4.277-1.787 8.414-1.172 29.26 4.347 25.486 6.749 33.416 7.496 43.537 4.105 6.617-2.218 21.435-8.54 26.078-11.128 1.864-1.038 3.778-1.893 4.254-1.899.476-.01 4.218 2.161 8.316 4.816 32.252 20.9 65.002 35.497 105.88 47.195 36.455 10.431 66.926 14.78 108.84 15.536 41.184.742 75.629-2.991 112.048-12.144 42.506-10.682 81.21-27.08 115.73-49.033 5.518-3.51 10.335-6.38 10.702-6.38.368 0 3.198 1.363 6.289 3.03 8.573 4.625 20.465 9.095 28.718 10.795 9.44 1.945 16.606 1.08 37.574-4.533 21.43-5.736 28.05-6.634 31.804-4.315 3.083 1.906 3.922 3.475 3.918 7.324-.006 5.63-.967 7.898-5.043 11.886-11.145 10.906-44.836 35.167-72.256 52.034-54.252 33.371-110.902 58.514-163.23 72.447-38.457 10.24-64.455 13.458-106.87 13.227-9.655-.053-18.525-.19-19.71-.306z"/><g aria-label="CODIFICARE" style="font-style:normal;font-variant:normal;font-weight:400;font-stretch:normal;font-size:133.33332825px;line-height:1.25;font-family:'Bitstream Charter';-inkscape-font-specification:'Bitstream Charter';letter-spacing:0;word-spacing:0;fill:#000;fill-opacity:1;stroke:none;stroke-width:2.14008713"><path d="m443.022 1200.607 7.234-7.565-3.983-1.678-6.647 4.657-1.87.287c-2.546-.468-4.792-1.145-6.783-1.984-11.522-4.851-13.435-13.18-4.736-22.277 8.195-8.572 20.038-10.838 30.636-6.376 2.773 1.168 4.922 2.677 6.775 4.6l.1 1.25-3.1 4.808 3.984 1.677 7.05-7.374c-4.139-3.288-8.329-5.791-12.525-7.558-14.794-6.23-31.043-3.737-40.566 6.223-5.998 6.273-6.615 13.804-1.797 19.93 2.08 2.622 5.565 5.03 10.259 7.006 4.765 2.007 10.222 3.499 15.969 4.374zM501.101 1180.763c-6.222-2.463-12.962-3.15-19.845-2.044-7.696 1.246-14.172 4.625-18.95 9.932-4.777 5.306-6.233 10.738-4.206 15.899 1.741 4.387 5.997 8.052 12.146 10.486 8.392 3.321 18.168 3.36 26.427.29 5.002-1.85 9.124-4.576 12.368-8.178 4.777-5.307 6.117-10.719 4.119-15.802-1.799-4.541-5.838-8.12-12.059-10.583zm-2.367 2.629c9.333 3.693 10.862 11.694 2.71 20.75-8.151 9.054-19.543 12.007-28.875 8.313-9.404-3.722-10.89-11.771-2.739-20.826 8.24-9.153 19.5-11.96 28.904-8.237z"/><path d="m538.87 1194.76-19.616-4.631-1.165 2.131 4.352 1.388.943 1.065-16.045 29.355-1.757.427-4.672-.802-1.194 2.184 19.615 4.631c7.941 1.875 14.297 2.714 21.182 1.272 8.318-1.765 14.44-5.913 17.905-12.253 6.115-11.188-.728-20.323-19.549-24.767zm-7.932.895 6.274 1.481c14.533 3.431 18.864 10.108 13.186 20.497-5.65 10.335-15.513 13.781-30.045 10.35l-6.274-1.482zM555.548 1237.677l21.08 2.278.598-2.286-5.26-.855-1.212-.934 8.029-30.722 1.62-.628 5.42.242.583-2.23-21.08-2.278-.583 2.23 5.245.911 1.213.934-8.03 30.722-1.62.627-5.405-.297z"/><path d="m582.434 1240.65 21.295.445.153-2.315-5.981-.407-1.384-.82.957-14.452 13.858.289 1.127.871.572 4.139 3.972.083.826-12.476-3.971-.083-1.118 4.103-1.235.766-13.859-.289.984-14.847 19.013.397 1.042.87.912 5.389 4.648.097.583-8.807-40.56-.845-.15 2.258 5.47.453 1.385.82-2.061 31.105-1.49.76-4.834.182z"/><path d="m628.02 1241.009 21.332-1.32-.275-2.305-5.43.052-1.527-.698-3.696-30.988 1.339-.876 5.356-.67-.268-2.25-21.333 1.319.269 2.25 5.436.003 1.528.699 3.696 30.987-1.34.876-5.362.615zM700.912 1231.663l-2.64-8.724-4.644.665.031 6.39-1.06 1.074a34.669 34.669 0 0 1-6.996 1.751c-13.432 1.925-23.512-3.084-26.688-13.575-2.99-9.883 3.247-16.999 15.602-18.769 3.233-.463 6.369-.394 9.72.105l1.38.84 2.764 4.846 4.643-.665-2.573-8.503c-6.437-.403-12.094-.226-16.986.475-17.246 2.47-26.449 11.797-22.973 23.282 2.19 7.233 9.6 12.854 19.492 14.95 4.248.89 9.291.974 14.764.19 5.555-.796 11.076-2.278 16.164-4.332zM709.47 1190.76l-1.863 37.738-4.326 1.725 1.106 2.185 15.712-3.668-1.106-2.185-5.346.95-1.18-.559.538-11.507 18.918-4.417 10.927 8.83-.184.878-4.835 1.427 1.107 2.184 18.197-4.248-1.107-2.185-5.133.483-36.134-28.866zm4.117 5.296 15.732 12.833-16.193 3.78zM735.224 1185.173l1.405 2.043 4.597-1.068 1.8.306 19.345 28.141-.817 1.125-4.21 1.63 1.439 2.094 18.314-5.738-1.439-2.094-4.562 1.119-1.8-.306-8.356-12.155c1.35-.485 2.623-.946 3.778-1.308 7.002-2.194 10.916-1.806 15.873 1.73 3.863 2.763 6.453 5.986 11.622 6.974 2.472.467 5.327.131 8.79-.954 1.77-.555 3.588-1.31 5.686-2.34l-1.334-1.941-.692.217c-5.849 1.832-8.733 1.991-12.497-.492-3.035-1.966-5.043-4.751-8.813-6.426-2.698-1.203-6.052-1.456-10.279-.938 7.469-3.83 9.658-7.992 6.639-12.384-4.319-6.283-12.4-7.289-24.866-3.383zm14.236-1.604 3.693-1.158c9.542-2.99 15.494-2.495 19.145 2.816 3.476 5.057.459 8.423-8.775 11.316-.462.145-1.847.579-4.268 1.275zM808.42 1203.651l37.683-14.918-6.916-7.903-3.805 1.507 3.042 5.389-.346 1.181-19.61 7.764-11.88-13.576 12-4.75 1.66.32 3.787 3.202 3.44-1.361-9.336-10.667-3.439 1.361 2.366 3.83-.43 1.084-12 4.75-10.736-12.266 16.903-6.692 1.66.322 4.632 3.716 4.097-1.622-6.195-7.08-35.049 13.876 1.698 1.94 4.425-1.36 1.838.186 23.38 26.715-.65 1.171-3.958 1.894z"/></g></svg>