<svg xmlns="http://www.w3.org/2000/svg" width="239.024" height="249.085"><path style="fill:#fff;fill-opacity:1;stroke-width:1.19164777" d="M201.99 9.05a1.57 1.57 0 0 0-.347.068c-20.137 7.576-30.313 11.038-57.619 16.7-16.685 3.378-26.735 4.498-38.822 1.37l-58.356-14.36A116.705 116.705 0 0 0 34.22 9.73L13.294 33.675 8.95 38.984l4.488 16.636c4.957 18.374 10.214 46.155 11.434 60.43 1.118 6.092.708 11.578.51 17.256-.027 12.339-6.537 39.868-13.153 55.617l-3.465 8.248 2.616 4.264c10.848 17.694 25.058 38.226 26.457 38.226.93 0 10.442-2.127 21.136-4.726 10.695-2.6 25.144-5.547 32.11-6.553 16.008-2.31 43.535-2.29 58.968-.01 29.994 6.378 52.489 12.104 52.489 12.104 11.997-20.101 34.806-28.488 24.931-49.942-5.47-14.924-13.368-39.519-13.777-57.23l-.04-3.012c.39-3.664.343-8.726.472-13.067 1.14-11.783 4.588-34.578 5.402-35.724 9.662-27.867 12.578-40.357-4.547-60.25-8.17-9.482-11.178-12.346-12.99-12.201zm-165.98 5.072c1.311.233 13.294 3.954 24.313 7.319 25.079 7.657 46.533 12.061 58.764 12.058 15.437-.003 37.843-4.774 67.02-14.27 8.104-2.637 15.172-4.794 15.704-4.794.533 0 5.93 5.697 11.992 12.662l11.024 12.662-4.965 19.81c-9.535 38.04-12.548 63.783-9.852 84.159 1.816 13.719 6.334 31.624 10.848 42.988 1.947 4.9 3.54 9.33 3.54 9.842 0 .951-22.028 35.803-23.67 37.451-.498.499-7.039-.69-14.536-2.639-28.41-7.387-40.075-8.953-66.66-8.953-26.642 0-38.853 1.644-66.373 8.936-7.34 1.945-13.566 3.535-13.834 3.535-.268 0-6-8.445-12.74-18.768l-12.252-18.767 2.699-7.15c16.389-43.414 16.869-71.75 2.21-130.62l-4.929-19.797 10.604-12.654c8.007-9.555 11.093-13.01 11.093-13.01z"/><text xml:space="preserve" style="font-style:normal;font-weight:400;font-size:20px;line-height:1.25;font-family:sans-serif;letter-spacing:0;word-spacing:0;fill:#000;fill-opacity:1;stroke:none" x="-425.974" y="28.181"/><text xml:space="preserve" style="font-style:normal;font-variant:normal;font-weight:400;font-stretch:normal;font-size:192px;line-height:1.25;font-family:'Bitstream Charter';-inkscape-font-specification:'Bitstream Charter';letter-spacing:0;word-spacing:0;fill:#fff;fill-opacity:1;stroke:none" x="61.93" y="192.23"><tspan x="61.93" y="192.23">T</tspan></text></svg>